,
.   http://www.scenetime.com/signup.php  ---&gt;  Hottest scene tracker on the net !!!  

    Join Now   http://www.scenetime.com/signup.php

    seed back for speed


 



...................................NFO:.................................................
                                                     
                                                   
                                                         
                                                          
                                                           
                                                          
                                                          
                                                          
                                                           
                                                         
                                                          
                                                        
                                                      
                                     
                                                 
                                                   
                                             
                                              
                                                     
                                                      
                                                      
                                                      
                                                    
                                                     
                                                   
                                                     
                                                     
                                                      
                                                     
                                                      
                                                    
                 ARTiCHOKE                        
                                                
                      
                                                        
                                                      
                                                      
                                               
                                          
                                                   
                                            
                                                    
                                                       
                                                        
                                                      
                                                
                                                        
                                                 
                                              
                                                  
                                                
                                                  
                                        

      
                                
      SPRiNTER proudly presents...     
                                
      
 
 Sounds.Of.Aus.EXTRAS.2007.DVDRip.XViD-SPRiNTER  http://shop.abc.net.au/browse/product.asp?productid=749112
 

 Date: 2011.10

 

      
                 
      Release notes     
                 
      

 

	Enjoy!


      
           
     Greetings    
           
      


NTX FiCO HNR CiNEFiLE AEN HUMANiSM TASTE 0MNiDVD


      
           
      Details     
           
      

Format                           : AVI
Format/Info                      : Audio Video Interleave
File size                        : 698 MiB
Duration                         : 53mn 34s
Overall bit rate mode            : Variable
Overall bit rate                 : 1 822 Kbps
Writing application              : Nandub v1.0rc2
Writing library                  : Nandub build 1853/release

Video
ID                               : 0
Format                           : MPEG-4 Visual
Format profile                   : Advanced Simple@L5
Format settings, BVOP            : No
Format settings, QPel            : No
Format settings, GMC             : No warppoints
Format settings, Matrix          : Default (H.263)
Codec ID                         : XVID
Codec ID/Hint                    : XviD
Duration                         : 53mn 34s
Bit rate                         : 1 667 Kbps
Width                            : 576 pixels
Height                           : 320 pixels
Display aspect ratio             : 16:9
Frame rate                       : 25.000 fps
Color space                      : YUV
Chroma subsampling               : 4:2:0
Bit depth                        : 8 bits
Scan type                        : Progressive
Compression mode                 : Lossy
Bits/(Pixel*Frame)               : 0.362
Stream size                      : 639 MiB (91%)
Writing library                  : XviD 61

Audio
ID                               : 1
Format                           : MPEG Audio
Format version                   : Version 1
Format profile                   : Layer 3
Codec ID                         : 55
Codec ID/Hint                    : MP3
Duration                         : 53mn 33s
Bit rate mode                    : Variable
Bit rate                         : 142 Kbps
Channel(s)                       : 2 channels
Sampling rate                    : 48.0 KHz
Compression mode                 : Lossy
Stream size                      : 54.5 MiB (8%)
Alignment                        : Aligned on interleaves
Interleave, duration             : 24 ms (0.60 video frame)
Interleave, preload duration     : 124 ms
Writing library                  : LAME3.89 (alpha)